HIERARCHY
ROOT Hips
{
 OFFSET 0.000000 0.000000 0.000000
 CHANNELS 6 Xposition Yposition Zposition Yrotation Xrotation Zrotation
 JOINT Chest
 {
  OFFSET 0.000000 10.932484 0.001155
  CHANNELS 3 Yrotation Xrotation Zrotation
  JOINT Chest2
  {
   OFFSET 0.000000 12.093805 -0.002099
   CHANNELS 3 Yrotation Xrotation Zrotation
   JOINT Chest3
   {
    OFFSET 0.000000 10.927800 0.000000
    CHANNELS 3 Yrotation Xrotation Zrotation
    JOINT Chest4
    {
     OFFSET 0.000000 10.927800 0.000000
     CHANNELS 3 Yrotation Xrotation Zrotation
     JOINT Neck
     {
      OFFSET 0.000000 15.355144 0.000000
      CHANNELS 3 Yrotation Xrotation Zrotation
      JOINT Head
      {
       OFFSET 0.000000 10.170446 -0.004991
       CHANNELS 3 Yrotation Xrotation Zrotation
       End Site
       {
        OFFSET 0.000000 19.463738 -0.002607
       }
      }
     }
     JOINT RightCollar
     {
      OFFSET -3.333126 8.566406 0.000000
      CHANNELS 3 Yrotation Xrotation Zrotation
      JOINT RightShoulder
      {
       OFFSET -15.529370 0.000000 0.000000
       CHANNELS 3 Yrotation Xrotation Zrotation
       JOINT RightElbow
       {
        OFFSET 0.000000 -33.145213 0.000000
        CHANNELS 3 Yrotation Xrotation Zrotation
        JOINT RightWrist
        {
         OFFSET 0.000000 -27.120720 -0.000000
         CHANNELS 3 Yrotation Xrotation Zrotation
         End Site
         {
          OFFSET 0.000000 -20.306483 0.000000
         }
        }
       }
      }
     }
     JOINT LeftCollar
     {
      OFFSET 3.333126 8.566406 0.000000
      CHANNELS 3 Yrotation Xrotation Zrotation
      JOINT LeftShoulder
      {
       OFFSET 15.529370 0.000000 0.000000
       CHANNELS 3 Yrotation Xrotation Zrotation
       JOINT LeftElbow
       {
        OFFSET 0.000000 -33.145213 0.000000
        CHANNELS 3 Yrotation Xrotation Zrotation
        JOINT LeftWrist
        {
         OFFSET 0.000000 -27.120720 -0.000000
         CHANNELS 3 Yrotation Xrotation Zrotation
         End Site
         {
          OFFSET 0.000000 -20.306483 0.000000
         }
        }
       }
      }
     }
    }
   }
  }
 }
 JOINT RightHip
 {
  OFFSET -8.869179 -0.005661 -0.000578
  CHANNELS 3 Yrotation Xrotation Zrotation
  JOINT RightKnee
  {
   OFFSET 0.000000 -45.835245 0.000547
   CHANNELS 3 Yrotation Xrotation Zrotation
   JOINT RightAnkle
   {
    OFFSET 0.000000 -44.890236 0.000924
    CHANNELS 3 Yrotation Xrotation Zrotation
    JOINT RightToe
    {
     OFFSET 0.000000 -8.082775 18.351045
     CHANNELS 3 Yrotation Xrotation Zrotation
     End Site
     {
      OFFSET 0.000000 -1.681997 7.345339
     }
    }
   }
  }
 }
 JOINT LeftHip
 {
  OFFSET 8.869179 -0.005661 -0.000578
  CHANNELS 3 Yrotation Xrotation Zrotation
  JOINT LeftKnee
  {
   OFFSET 0.000000 -45.835245 0.000547
   CHANNELS 3 Yrotation Xrotation Zrotation
   JOINT LeftAnkle
   {
    OFFSET 0.000000 -44.890236 0.000924
    CHANNELS 3 Yrotation Xrotation Zrotation
    JOINT LeftToe
    {
     OFFSET 0.000000 -8.082775 18.351045
     CHANNELS 3 Yrotation Xrotation Zrotation
     End Site
     {
      OFFSET 0.000000 -1.681997 7.345339
     }
    }
   }
  }
 }
}
MOTION
Frames: 8
Frame Time: 0.008333
289.806823 53.207733 183.741486 -30.662809 -31.125446 -1.673560 0.364418 17.497837 -0.432143 0.201529 7.777795 -0.444523 0.201529 7.777795 -0.444523 0.156602 5.833204 -0.335457 -4.093683 14.126010 -0.193760 -7.635273 -9.855117 1.240066 -4.583645 0.475491 5.422370 21.794439 -0.918267 -35.152130 28.507074 -64.154489 10.298701 44.999018 -23.519828 -61.236459 1.723179 -0.767327 -4.632864 -28.045902 -2.776600 48.408029 -5.583862 -56.075011 -32.386127 -50.871878 -48.821706 60.996556 -26.752065 -55.538235 16.356906 -158.599034 74.313967 -165.417180 2.777689 -15.764072 -5.521062 -0.135511 0.822077 -0.077085 18.724622 -58.684531 -5.267180 173.577096 67.685572 177.771905 6.397092 -22.471035 5.209378 -0.018520 -0.252148 -0.023701
289.805762 53.209228 183.739031 -30.683370 -31.110111 -1.670327 0.359280 17.498977 -0.428472 0.198421 7.779395 -0.444690 0.198421 7.779395 -0.444690 0.154278 5.834407 -0.335542 -4.086604 14.119244 -0.191499 -7.623156 -9.867877 1.241989 -4.570891 0.473723 5.419154 21.806764 -0.905335 -35.167609 28.489809 -64.177562 10.305506 45.000483 -23.526556 -61.242578 1.742870 -0.767412 -4.638278 -28.070474 -2.760477 48.419414 -5.574822 -56.092160 -32.403194 -50.863690 -48.811062 61.027579 -26.763549 -55.545634 16.377532 -158.580594 74.320770 -165.394786 2.804078 -15.761565 -5.533937 -0.132640 0.825285 -0.075810 18.739883 -58.697885 -5.271230 173.528229 67.686266 177.733873 6.396644 -22.476370 5.197448 -0.020503 -0.250708 -0.021426
289.803126 53.212426 183.736651 -30.699377 -31.103393 -1.662798 0.355233 17.506829 -0.426058 0.197695 7.781346 -0.443229 0.197695 7.781346 -0.443229 0.153717 5.835871 -0.334440 -4.086017 14.115300 -0.191192 -7.622360 -9.875201 1.242586 -4.568296 0.473924 5.408968 21.802269 -0.902099 -35.177800 28.478813 -64.193763 10.319104 45.012873 -23.521584 -61.260171 1.737894 -0.767653 -4.641293 -28.083605 -2.749692 48.424631 -5.552487 -56.088644 -32.439960 -50.888550 -48.799995 61.074036 -26.769393 -55.545884 16.386752 -158.569087 74.326400 -165.382256 2.828006 -15.759698 -5.548943 -0.126713 0.826054 -0.072710 18.754702 -58.699592 -5.284649 173.498018 67.688178 177.710878 6.452931 -22.481593 5.167360 -0.020339 -0.252142 -0.020061
289.800239 53.214861 183.732413 -30.712510 -31.093993 -1.659175 0.352697 17.509898 -0.422659 0.197057 7.783134 -0.441802 0.197057 7.783134 -0.441802 0.153222 5.837213 -0.333363 -4.082036 14.113573 -0.191351 -7.614886 -9.878614 1.240843 -4.570770 0.480727 5.402037 21.804475 -0.903699 -35.186055 28.479540 -64.203833 10.319655 45.015364 -23.522818 -61.272852 1.735142 -0.761938 -4.642487 -28.094593 -2.741466 48.435882 -5.541344 -56.105332 -32.467050 -50.874370 -48.780277 61.098306 -26.777692 -55.551195 16.405445 -158.574323 74.331921 -165.382426 2.803827 -15.753963 -5.548036 -0.126644 0.822514 -0.073084 18.757693 -58.705923 -5.285385 173.470592 67.691232 177.679813 6.541806 -22.487817 5.130884 -0.019100 -0.254634 -0.018803
289.799166 53.216843 183.729094 -30.726627 -31.086347 -1.650880 0.345927 17.517721 -0.422937 0.195764 7.785534 -0.440795 0.195764 7.785534 -0.440795 0.152242 5.839014 -0.332593 -4.083223 14.110612 -0.191720 -7.617118 -9.884070 1.240800 -4.572518 0.482859 5.395687 21.815285 -0.901740 -35.197512 28.458551 -64.212134 10.329637 45.020448 -23.524279 -61.286400 1.735014 -0.764132 -4.646641 -28.108310 -2.730640 48.446170 -5.512605 -56.098695 -32.516885 -50.904732 -48.765048 61.147300 -26.783097 -55.556001 16.410049 -158.592707 74.339430 -165.400891 2.840144 -15.747000 -5.561959 -0.123693 0.822922 -0.073151 18.773955 -58.711481 -5.297931 173.449412 67.694335 177.667074 6.533644 -22.484846 5.128902 -0.020894 -0.255480 -0.020349
289.801334 53.220571 183.731090 -30.722138 -31.095798 -1.626693 0.317245 17.542342 -0.450263 0.194330 7.787808 -0.440174 0.194330 7.787808 -0.440174 0.151162 5.840721 -0.332110 -4.083008 14.109401 -0.189931 -7.617473 -9.886215 1.244158 -4.576179 0.487758 5.388322 21.824476 -0.901930 -35.210756 28.439158 -64.229201 10.340023 45.012994 -23.528058 -61.291469 1.730464 -0.765011 -4.648690 -28.118522 -2.718712 48.455505 -5.492326 -56.105502 -32.551434 -50.900553 -48.744557 61.169637 -26.753996 -55.560164 16.356701 -158.661428 74.346113 -165.461579 2.821462 -15.725118 -5.576027 -0.108559 0.802905 -0.064439 18.802156 -58.687392 -5.341066 173.448104 67.702883 177.663414 6.538593 -22.482285 5.132220 -0.019006 -0.257639 -0.021586
289.800761 53.222835 183.727752 -30.735020 -31.089386 -1.618046 0.310204 17.547105 -0.452842 0.192505 7.789452 -0.439765 0.192505 7.789452 -0.439765 0.149792 5.841955 -0.331780 -4.083433 14.109589 -0.189700 -7.618356 -9.885829 1.244746 -4.572358 0.493457 5.386247 21.828010 -0.891254 -35.220197 28.435448 -64.240332 10.336039 45.019813 -23.528355 -61.315701 1.730419 -0.763783 -4.647324 -28.131989 -2.707453 48.462942 -5.462622 -56.094124 -32.606586 -50.937197 -48.721700 61.220101 -26.743748 -55.567392 16.348712 -158.680432 74.352152 -165.470431 2.825698 -15.721330 -5.580023 -0.113695 0.803273 -0.067069 18.812681 -58.689506 -5.353265 173.422894 67.706825 177.639297 6.596035 -22.484327 5.103650 -0.018212 -0.259454 -0.018958
289.805489 53.225645 183.727144 -30.750799 -31.082846 -1.602209 0.301359 17.554085 -0.461199 0.189819 7.792581 -0.440015 0.189819 7.792581 -0.440015 0.147785 5.844303 -0.331934 -4.085157 14.109160 -0.187872 -7.622339 -9.886421 1.248885 -4.572243 0.498502 5.378994 21.831700 -0.890239 -35.227071 28.437955 -64.252844 10.331579 45.034371 -23.536388 -61.330966 1.736361 -0.761956 -4.651780 -28.148698 -2.696419 48.479076 -5.448339 -56.105103 -32.637289 -50.939652 -48.706863 61.248874 -26.736439 -55.581031 16.333489 -158.750811 74.359829 -165.533391 2.808413 -15.710551 -5.582478 -0.118158 0.797609 -0.070261 18.840049 -58.689126 -5.377461 173.389003 67.713043 177.609477 6.575632 -22.479220 5.107057 -0.020093 -0.261409 -0.018285
